<?xml version="1.0" encoding="UTF-8" standalone="no"?>
<!DOCTYPE svg PUBLIC "-//W3C//DTD SVG 1.1//EN"
 "http://www.w3.org/Graphics/SVG/1.1/DTD/svg11.dtd">
<!-- Generated by graphviz version 2.28.0 (20120228.1928)
 -->
<!-- Title: G Pages: 1 -->
<svg width="488pt" height="392pt"
 viewBox="0.00 0.00 488.00 392.00" xmlns="http://www.w3.org/2000/svg" xmlns:xlink="http://www.w3.org/1999/xlink">
<g id="graph1" class="graph" transform="scale(1 1) rotate(0) translate(4 388)">
<title>G</title>
<polygon fill="white" stroke="white" points="-4,5 -4,-388 485,-388 485,5 -4,5"/>
<g id="graph2" class="cluster"><title>cluster_Happy</title>
<polyline fill="none" stroke="gray" points="343,-8 447,-8 "/>
<path fill="none" stroke="gray" d="M447,-8C453,-8 459,-14 459,-20"/>
<polyline fill="none" stroke="gray" points="459,-20 459,-230 "/>
<path fill="none" stroke="gray" d="M459,-230C459,-236 453,-242 447,-242"/>
<polyline fill="none" stroke="gray" points="447,-242 343,-242 "/>
<path fill="none" stroke="gray" d="M343,-242C337,-242 331,-236 331,-230"/>
<polyline fill="none" stroke="gray" points="331,-230 331,-20 "/>
<path fill="none" stroke="gray" d="M331,-20C331,-14 337,-8 343,-8"/>
<text text-anchor="middle" x="395" y="-229.2" font-family="Times,serif" font-size="11.00" fill="gray">Happy</text>
</g>
<g id="graph3" class="cluster"><title>cluster_global</title>
<polyline fill="none" stroke="gray" points="330,-250 460,-250 "/>
<path fill="none" stroke="gray" d="M460,-250C466,-250 472,-256 472,-262"/>
<polyline fill="none" stroke="gray" points="472,-262 472,-364 "/>
<path fill="none" stroke="gray" d="M472,-364C472,-370 466,-376 460,-376"/>
<polyline fill="none" stroke="gray" points="460,-376 330,-376 "/>
<path fill="none" stroke="gray" d="M330,-376C324,-376 318,-370 318,-364"/>
<polyline fill="none" stroke="gray" points="318,-364 318,-262 "/>
<path fill="none" stroke="gray" d="M318,-262C318,-256 324,-250 330,-250"/>
<text text-anchor="middle" x="395" y="-363.2" font-family="Times,serif" font-size="11.00" fill="gray">global</text>
</g>
<!-- \\Happy\\HappyRules -->
<g id="node2" class="node"><title>\\Happy\\HappyRules</title>
<a xlink:href="HappyRules.html" xlink:title="HappyRules" target="_parent">
<polygon fill="none" stroke="black" points="437,-214 353,-214 353,-178 437,-178 437,-214"/>
<text text-anchor="middle" x="395" y="-193.2" font-family="Courier,monospace" font-size="11.00">HappyRules</text>
</a>
</g>
<!-- \\Happy\\HappyErrors -->
<g id="node3" class="node"><title>\\Happy\\HappyErrors</title>
<a xlink:href="HappyErrors.html" xlink:title="HappyErrors" target="_parent">
<polygon fill="none" stroke="black" points="440.5,-160 349.5,-160 349.5,-124 440.5,-124 440.5,-160"/>
<text text-anchor="middle" x="395" y="-139.2" font-family="Courier,monospace" font-size="11.00">HappyErrors</text>
</a>
</g>
<!-- \\Happy\\HappyField -->
<g id="node4" class="node"><title>\\Happy\\HappyField</title>
<a xlink:href="HappyField.html" xlink:title="HappyField" target="_parent">
<polygon fill="none" stroke="black" points="437,-106 353,-106 353,-70 437,-70 437,-106"/>
<text text-anchor="middle" x="395" y="-85.2" font-family="Courier,monospace" font-size="11.00">HappyField</text>
</a>
</g>
<!-- \\Happy\\HappyFunctions -->
<g id="node5" class="node"><title>\\Happy\\HappyFunctions</title>
<a xlink:href="HappyFunctions.html" xlink:title="HappyFunctions" target="_parent">
<polygon fill="none" stroke="black" points="450.5,-52 339.5,-52 339.5,-16 450.5,-16 450.5,-52"/>
<text text-anchor="middle" x="395" y="-31.2" font-family="Courier,monospace" font-size="11.00">HappyFunctions</text>
</a>
</g>
<!-- \\HappyFunctionsTest -->
<g id="node7" class="node"><title>\\HappyFunctionsTest</title>
<a xlink:href="Tests.HappyFunctionsTest.html" xlink:title="HappyFunctionsTest" target="_parent">
<polygon fill="none" stroke="black" points="464,-348 326,-348 326,-312 464,-312 464,-348"/>
<text text-anchor="middle" x="395" y="-327.2" font-family="Courier,monospace" font-size="11.00">HappyFunctionsTest</text>
</a>
</g>
<!-- \\PHPUnit_Framework_TestCase -->
<g id="node10" class="node"><title>\\PHPUnit_Framework_TestCase</title>
<ellipse fill="none" stroke="black" cx="127" cy="-303" rx="126.978" ry="18"/>
<text text-anchor="middle" x="127" y="-299.3" font-family="Times,serif" font-size="14.00" fill="gray">\PHPUnit_Framework_TestCase</text>
</g>
<!-- \\HappyFunctionsTest&#45;&gt;\\PHPUnit_Framework_TestCase -->
<g id="edge4" class="edge"><title>\\HappyFunctionsTest&#45;&gt;\\PHPUnit_Framework_TestCase</title>
<path fill="none" stroke="black" d="M325.844,-323.082C299.957,-320.454 269.731,-317.386 240.81,-314.451"/>
<polygon fill="none" stroke="black" points="240.946,-310.947 230.643,-313.419 240.239,-317.911 240.946,-310.947"/>
</g>
<!-- \\HappyRulesTest -->
<g id="node8" class="node"><title>\\HappyRulesTest</title>
<a xlink:href="Tests.HappyRulesTest.html" xlink:title="HappyRulesTest" target="_parent">
<polygon fill="none" stroke="black" points="450.5,-294 339.5,-294 339.5,-258 450.5,-258 450.5,-294"/>
<text text-anchor="middle" x="395" y="-273.2" font-family="Courier,monospace" font-size="11.00">HappyRulesTest</text>
</a>
</g>
<!-- \\HappyRulesTest&#45;&gt;\\PHPUnit_Framework_TestCase -->
<g id="edge6" class="edge"><title>\\HappyRulesTest&#45;&gt;\\PHPUnit_Framework_TestCase</title>
<path fill="none" stroke="black" d="M339.207,-281.562C310.692,-284.456 274.739,-288.105 240.618,-291.569"/>
<polygon fill="none" stroke="black" points="240.172,-288.096 230.576,-292.588 240.879,-295.06 240.172,-288.096"/>
</g>
</g>
</svg>
