<?xml version="1.0" encoding="utf-8"?>
<!-- Generator: Adobe Illustrator 15.0.0, SVG Export Plug-In . SVG Version: 6.00 Build 0)  -->
<!DOCTYPE svg PUBLIC "-//W3C//DTD SVG 1.1//EN" "http://www.w3.org/Graphics/SVG/1.1/DTD/svg11.dtd">
<svg version="1.1" xmlns="http://www.w3.org/2000/svg" xmlns:xlink="http://www.w3.org/1999/xlink" x="0px" y="0px" width="72px"
	 height="72px" viewBox="0 0 72 72" enable-background="new 0 0 72 72" xml:space="preserve">
<g id="Symbols">
	<g>
		<g>
			<path d="M62.618,16.154l-0.664-0.664l1.045-1.045L57.554,9l-1.045,1.045l-0.664-0.664l-2.129,2.129l6.773,6.775L62.618,16.154z
				 M52.159,26.08l0.029-0.002c-0.234-0.436,0.092-0.895,0.303-1.125l5.896-5.896l-5.445-5.443l-5.896,5.895
				c-0.232,0.211-0.688,0.537-1.125,0.303l-0.002,0.029c-4.479-2.908-9.109-1.195-12.992,2.688L10.462,44.994
				c-2.062,2.062-1.928,5.572,0.303,7.801l8.439,8.439c2.229,2.23,5.736,2.367,7.803,0.305l22.465-22.467
				C53.354,35.189,55.067,30.561,52.159,26.08z M32.058,50.736L21.265,39.943l11.395-11.396L43.452,39.34L32.058,50.736z
				 M52.935,57.916c0,2.809,2.252,5.084,5.033,5.084c2.779,0,5.031-2.275,5.031-5.084c0-2.807-5.031-11.832-5.031-11.832
				S52.935,55.109,52.935,57.916z"/>
		</g>
	</g>
</g>
<g id="Layer_2">
</g>
</svg>
