<?xml version="1.0" encoding="utf-8"?>
<!-- Generator: Adobe Illustrator 15.0.0, SVG Export Plug-In . SVG Version: 6.00 Build 0)  -->
<!DOCTYPE svg PUBLIC "-//W3C//DTD SVG 1.1//EN" "http://www.w3.org/Graphics/SVG/1.1/DTD/svg11.dtd">
<svg version="1.1" xmlns="http://www.w3.org/2000/svg" xmlns:xlink="http://www.w3.org/1999/xlink" x="0px" y="0px" width="72px"
	 height="72px" viewBox="0 0 72 72" enable-background="new 0 0 72 72" xml:space="preserve">
<g id="Symbols">
	<g>
		<g>
			<path d="M54.853,17.129L46.708,9c0,0-13.381,7.041-19.264,12.912c-5.436,5.422-6.17,14.824-1.311,21.164l-6.672,6.656
				c-3.533-2.498-7.918-2.639-10.463-0.1l6.699,6.684l1.412,1.414l0.004-0.002L22.398,63c2.543-2.537,2.402-6.916-0.102-10.441
				l6.689-6.676c2.834,2.111,6.254,3.145,9.658,3.145c4.23,0,8.426-1.568,11.414-4.551C55.943,38.608,63,25.258,63,25.258
				L54.853,17.129z M27.539,29.213c0.559-1.658,1.461-3.201,2.73-4.469c3.902-3.893,11.693-8.518,15.736-10.795l6.023,6.01
				l6.018,6.006c-0.555,0.98-1.207,2.102-1.916,3.283L27.539,29.213z M52.833,57.917c0,2.809,2.275,5.084,5.084,5.084
				C60.724,63,63,60.725,63,57.917c0-2.807-5.082-11.832-5.082-11.832S52.833,55.11,52.833,57.917z"/>
		</g>
	</g>
</g>
<g id="Layer_2">
</g>
</svg>
