<?xml version="1.0" encoding="utf-8"?>
<!-- Generator: Adobe Illustrator 15.0.0, SVG Export Plug-In . SVG Version: 6.00 Build 0)  -->
<!DOCTYPE svg PUBLIC "-//W3C//DTD SVG 1.1//EN" "http://www.w3.org/Graphics/SVG/1.1/DTD/svg11.dtd">
<svg version="1.1" xmlns="http://www.w3.org/2000/svg" xmlns:xlink="http://www.w3.org/1999/xlink" x="0px" y="0px" width="72px"
	 height="72px" viewBox="0 0 72 72" enable-background="new 0 0 72 72" xml:space="preserve">
<g id="Symbols">
	<g>
		<path d="M52.833,57.917c0,2.811,2.275,5.086,5.082,5.084c2.809,0.002,5.084-2.275,5.084-5.084c0-2.807-5.082-11.832-5.082-11.832
			S52.833,55.112,52.833,57.917z"/>
		<path d="M40.892,9L11.026,38.881c-2.486,2.516-2.719,6.367-0.514,8.576l14.016,14.027c1.02,1.02,2.379,1.516,3.803,1.516
			c1.68,0,3.441-0.699,4.807-2.061l3.057-3.061l0.027,0.027l26.777-26.785L40.892,9z M40.892,14.659l10.846,10.854H30.042
			L40.892,14.659z M18.124,39.641h7.332l-0.002,7.334l-7.33,0.002V39.641z M28.56,58.127l-5.184-5.188l5.184-5.186l5.184,5.186
			L28.56,58.127z M38.517,48.233l-6.918-2.43l2.43-6.922l6.916,2.43L38.517,48.233z"/>
	</g>
</g>
<g id="Layer_2">
</g>
</svg>
