<?xml version="1.0" encoding="utf-8"?>
<!-- Generator: Adobe Illustrator 15.0.0, SVG Export Plug-In . SVG Version: 6.00 Build 0)  -->
<!DOCTYPE svg PUBLIC "-//W3C//DTD SVG 1.1//EN" "http://www.w3.org/Graphics/SVG/1.1/DTD/svg11.dtd">
<svg version="1.1" xmlns="http://www.w3.org/2000/svg" xmlns:xlink="http://www.w3.org/1999/xlink" x="0px" y="0px" width="72px"
	 height="72px" viewBox="0 0 72 72" enable-background="new 0 0 72 72" xml:space="preserve">
<g id="Symbols">
	<g>
		<g>
			<path d="M57.917,46.084c0,0-5.084,9.025-5.084,11.832c0,2.809,2.275,5.084,5.084,5.084c2.807,0,5.082-2.275,5.082-5.084
				C62.999,55.11,57.917,46.084,57.917,46.084z M36.743,11.463l-3.696,3.695l-4.816-4.814C27.334,9.45,26.151,9,24.97,9
				c-1.184,0-2.364,0.449-3.264,1.344L10.347,21.708c-1.796,1.793-1.796,4.73,0,6.521l4.816,4.814l-0.646,0.645l-3.432,3.432
				c-2.404,2.402-2.636,6.102-0.521,8.219l16.214,16.217C27.749,62.526,29.048,63,30.407,63c1.604,0,3.286-0.666,4.59-1.967
				l2.918-2.92l0.026,0.025l22.741-22.736L36.743,11.463z M26.674,21.532l-8.251,8.252l-4.814-4.812l11.348-11.354
				c0.002,0,0.007-0.002,0.014-0.002l-0.004-0.008l4.814,4.816L26.674,21.532z M28.672,43.389c0,0-1.724-10.688,2.227-14.639
				c1.94-1.941,5.441-2.521,7.239-0.721c1.304,1.305,1.594,3.26,0.917,4.977c1.717-0.674,3.675-0.385,4.98,0.92
				c1.796,1.799,1.217,5.297-0.723,7.236C39.487,44.989,28.672,43.389,28.672,43.389z"/>
		</g>
	</g>
</g>
<g id="Layer_2">
</g>
</svg>
