<?xml version="1.0" encoding="utf-8"?>
<!-- Generator: Adobe Illustrator 15.0.0, SVG Export Plug-In . SVG Version: 6.00 Build 0)  -->
<!DOCTYPE svg PUBLIC "-//W3C//DTD SVG 1.1//EN" "http://www.w3.org/Graphics/SVG/1.1/DTD/svg11.dtd">
<svg version="1.1" xmlns="http://www.w3.org/2000/svg" xmlns:xlink="http://www.w3.org/1999/xlink" x="0px" y="0px" width="72px"
	 height="72px" viewBox="0 0 72 72" enable-background="new 0 0 72 72" xml:space="preserve">
<g id="Symbols">
	<g>
		<g>
			<path d="M58.225,46.085c0,0-5.033,9.025-5.033,11.832c0,2.809,2.252,5.084,5.033,5.084c2.777,0,5.031-2.275,5.031-5.084
				C63.256,55.111,58.225,46.085,58.225,46.085z M59.137,17.498l2.131-2.129c1.691-1.693,1.971-4.164,0.621-5.514
				c-1.352-1.354-3.818-1.07-5.514,0.623l-2.127,2.129c-2.395-0.523-5.199,0.15-7.547,1.945l10.492,10.49
				C58.986,22.697,59.662,19.894,59.137,17.498z M37.637,19.48c-1.025-1.023-2.883-0.832-4.146,0.432l-3.354,3.355l4.611,4.611
				c0.332,0.332,0.27,0.93-0.141,1.336c-0.201,0.205-0.453,0.324-0.695,0.35c-0.242,0.023-0.473-0.043-0.641-0.209l-4.611-4.613
				l-6.262,6.264l4.611,4.611c0.332,0.332,0.271,0.93-0.137,1.338c-0.205,0.203-0.455,0.322-0.699,0.348
				c-0.24,0.023-0.473-0.045-0.637-0.209l-4.615-4.611l-6.26,6.258l4.613,4.613c0.332,0.332,0.268,0.93-0.139,1.338
				c-0.205,0.205-0.457,0.32-0.697,0.346c-0.244,0.023-0.477-0.041-0.641-0.205l-4.613-4.615L9.832,43.57
				c-1.262,1.264-1.455,3.121-0.43,4.146l14.629,14.627c1.025,1.023,2.879,0.834,4.145-0.432l23.656-23.658
				c1.266-1.264,1.457-3.119,0.434-4.145L37.637,19.48z M57.408,28.605L43.143,14.337l-3.648,3.648l14.264,14.266L57.408,28.605z"/>
		</g>
	</g>
</g>
<g id="Layer_2">
</g>
</svg>
