<?xml version="1.0" encoding="utf-8"?>
<!-- Generator: Adobe Illustrator 15.0.0, SVG Export Plug-In . SVG Version: 6.00 Build 0)  -->
<!DOCTYPE svg PUBLIC "-//W3C//DTD SVG 1.1//EN" "http://www.w3.org/Graphics/SVG/1.1/DTD/svg11.dtd">
<svg version="1.1" xmlns="http://www.w3.org/2000/svg" xmlns:xlink="http://www.w3.org/1999/xlink" x="0px" y="0px" width="72px"
	 height="72px" viewBox="0 0 72 72" enable-background="new 0 0 72 72" xml:space="preserve">
<g id="Symbols">
	<g>
		<path d="M63,39.184L32.816,9l-6.525,33.91l-6.83,6.822c-3.531-2.498-7.916-2.639-10.461-0.1l6.697,6.684l1.414,1.414l0.002-0.002
			L22.398,63c2.543-2.537,2.4-6.916-0.102-10.441l6.873-6.867L63,39.184z M36.498,39.784c-1.312,0.391-2.695-0.359-3.084-1.672
			c-0.391-1.311,0.359-2.691,1.674-3.082c1.311-0.389,2.693,0.357,3.084,1.67C38.561,38.012,37.811,39.395,36.498,39.784z
			 M35.318,17.161l12.926,12.924H32.832L35.318,17.161z"/>
		<path d="M52.834,57.917c0,2.811,2.275,5.086,5.082,5.084C60.725,63.002,63,60.725,63,57.917c0-2.807-5.082-11.832-5.082-11.832
			S52.834,55.112,52.834,57.917z"/>
	</g>
</g>
<g id="Layer_2">
</g>
</svg>
