<?xml version="1.0" encoding="utf-8"?>
<!-- Generator: Adobe Illustrator 15.0.0, SVG Export Plug-In . SVG Version: 6.00 Build 0)  -->
<!DOCTYPE svg PUBLIC "-//W3C//DTD SVG 1.1//EN" "http://www.w3.org/Graphics/SVG/1.1/DTD/svg11.dtd">
<svg version="1.1" xmlns="http://www.w3.org/2000/svg" xmlns:xlink="http://www.w3.org/1999/xlink" x="0px" y="0px" width="72px"
	 height="72px" viewBox="0 0 72 72" enable-background="new 0 0 72 72" xml:space="preserve">
<g id="Symbols">
	<g>
		<g>
			<path d="M60.262,18.23c0.402,0.4,0.914,0.607,1.389,0.607c0.369,0,0.715-0.123,0.969-0.379c0.586-0.586,0.482-1.646-0.229-2.357
				l-6.494-6.492C55.496,9.209,54.982,9,54.508,9c-0.367,0-0.713,0.125-0.969,0.381c-0.584,0.584-0.48,1.645,0.23,2.355
				L60.262,18.23z M59.396,20.139l-7.539-7.533L38.65,23.609c-3.676-1.141-7.447-0.553-9.926,1.926L10.236,44.021
				c-1.951,1.953-1.551,5.545,0.887,7.984l8.871,8.869c2.439,2.439,6.029,2.838,7.982,0.887l18.486-18.486
				c2.479-2.48,3.066-6.25,1.928-9.928L59.396,20.139z M28.15,55.838l-11.988-11.99l12.473-12.475l11.992,11.988L28.15,55.838z
				 M57.967,46.084c0,0-5.033,9.025-5.033,11.832c0,2.809,2.252,5.084,5.033,5.084c2.779,0,5.031-2.275,5.031-5.084
				C62.998,55.109,57.967,46.084,57.967,46.084z"/>
		</g>
	</g>
</g>
<g id="Layer_2">
</g>
</svg>
