<?xml version="1.0" encoding="utf-8"?>
<!-- Generator: Adobe Illustrator 15.0.0, SVG Export Plug-In . SVG Version: 6.00 Build 0)  -->
<!DOCTYPE svg PUBLIC "-//W3C//DTD SVG 1.1//EN" "http://www.w3.org/Graphics/SVG/1.1/DTD/svg11.dtd">
<svg version="1.1" xmlns="http://www.w3.org/2000/svg" xmlns:xlink="http://www.w3.org/1999/xlink" x="0px" y="0px" width="72px"
	 height="72px" viewBox="0 0 72 72" enable-background="new 0 0 72 72" xml:space="preserve">
<g id="Symbols">
	<g>
		<path d="M52.834,57.917c0,2.811,2.275,5.086,5.084,5.084C60.725,63.002,63,60.725,63,57.917c0-2.807-5.082-11.832-5.082-11.832
			S52.834,55.11,52.834,57.917z"/>
		<polygon points="56.496,13.155 56.504,13.155 54.59,9.258 52.84,11.661 55.596,14.415 		"/>
		<rect x="27.528" y="23.919" transform="matrix(0.7071 0.7071 -0.7071 0.7071 32.1288 -24.2585)" width="35.641" height="5.473"/>
		<polygon points="56.775,9 58.668,12.852 63,12.852 63,9 		"/>
		<polygon points="54.371,16.127 51.602,13.36 46.186,20.795 49.014,23.622 		"/>
		<polygon points="9,47.454 24.547,63 52.191,40.192 31.809,19.813 		"/>
	</g>
</g>
<g id="Layer_2">
</g>
</svg>
