<?xml version="1.0" encoding="utf-8"?>
<!-- Generator: Adobe Illustrator 15.0.0, SVG Export Plug-In . SVG Version: 6.00 Build 0)  -->
<!DOCTYPE svg PUBLIC "-//W3C//DTD SVG 1.1//EN" "http://www.w3.org/Graphics/SVG/1.1/DTD/svg11.dtd">
<svg version="1.1" id="Layer_1" xmlns="http://www.w3.org/2000/svg" xmlns:xlink="http://www.w3.org/1999/xlink" x="0px" y="0px"
	 width="72px" height="72px" viewBox="0 0 72 72" enable-background="new 0 0 72 72" xml:space="preserve">
<g id="Layer_2">
</g>
<g>
	<path fill="#231F20" d="M59.589,21.404c-0.189-0.133-0.373-0.278-0.539-0.444l-8.008-8.01c-0.167-0.167-0.316-0.348-0.45-0.537
		l-4.779,3.829c-0.186-1.403-0.811-2.759-1.889-3.837c-1.303-1.303-3.011-1.954-4.718-1.954c-1.708,0-3.416,0.651-4.718,1.954
		c-1.897,1.896-2.406,4.651-1.54,7.016c-1.869,0.251-3.804,1.066-5.67,2.933l-17.132,17.13c-1.808,1.811-1.437,5.139,0.82,7.399
		l14.149,14.148c2.261,2.259,5.59,2.63,7.398,0.82l17.13-17.131c4.649-4.647,2.842-9.727,1.785-13.133L59.589,21.404z
		 M37.317,15.233c0.504-0.505,1.175-0.782,1.889-0.782s1.385,0.278,1.89,0.783c0.505,0.504,0.782,1.175,0.782,1.889
		s-0.278,1.385-0.782,1.89c-0.505,0.504-1.176,0.782-1.89,0.782s-1.385-0.277-1.89-0.782c-0.504-0.505-0.782-1.176-0.782-1.89
		S36.812,15.738,37.317,15.233z M33.82,54.841L17.127,38.147l8.891-8.894L42.714,45.95L33.82,54.841z M60.464,19.546
		c0.371,0.371,0.846,0.563,1.286,0.563c0.341,0,0.661-0.114,0.896-0.351C62.884,19.522,63,19.201,63,18.86
		c0-0.439-0.195-0.916-0.565-1.286l-8.01-8.01C54.055,9.194,53.579,9,53.141,9h-0.003c-0.341,0-0.66,0.115-0.898,0.353
		c-0.54,0.541-0.444,1.524,0.215,2.182L60.464,19.546z M52.834,57.916c0,2.811,2.275,5.086,5.082,5.084
		C60.725,63.002,63,60.725,63,57.916c0-2.807-5.082-11.832-5.082-11.832S52.834,55.111,52.834,57.916z"/>
</g>
</svg>
