<?xml version="1.0" encoding="utf-8"?>
<!-- Generator: Adobe Illustrator 15.0.0, SVG Export Plug-In . SVG Version: 6.00 Build 0)  -->
<!DOCTYPE svg PUBLIC "-//W3C//DTD SVG 1.1//EN" "http://www.w3.org/Graphics/SVG/1.1/DTD/svg11.dtd">
<svg version="1.1" xmlns="http://www.w3.org/2000/svg" xmlns:xlink="http://www.w3.org/1999/xlink" x="0px" y="0px" width="72px"
	 height="72px" viewBox="0 0 72 72" enable-background="new 0 0 72 72" xml:space="preserve">
<g id="Symbols">
	<g>
		<g>
			<path d="M52.832,57.917c0,2.809,2.277,5.084,5.086,5.084C60.725,62.999,63,60.723,63,57.917c0-2.809-5.082-11.834-5.082-11.834
				S52.832,55.108,52.832,57.917z M31.734,17.692L8.998,45.247L26.752,63l27.555-22.736L31.734,17.692z M19.656,38.616l8.098-9.814
				l15.443,15.443l-9.816,8.098L19.656,38.616z M63,37.542l-2.221-3.488l2.166-3.438L41.383,9.053l-3.438,2.168L34.457,9
				l-4.439,4.441l28.543,28.539L63,37.542z"/>
		</g>
	</g>
</g>
<g id="Layer_2">
</g>
</svg>
