<?xml version="1.0" encoding="utf-8"?>
<!-- Generator: Adobe Illustrator 15.0.0, SVG Export Plug-In . SVG Version: 6.00 Build 0)  -->
<!DOCTYPE svg PUBLIC "-//W3C//DTD SVG 1.1//EN" "http://www.w3.org/Graphics/SVG/1.1/DTD/svg11.dtd">
<svg version="1.1" id="Layer_1" xmlns="http://www.w3.org/2000/svg" xmlns:xlink="http://www.w3.org/1999/xlink" x="0px" y="0px"
	 width="72px" height="72px" viewBox="0 0 72 72" enable-background="new 0 0 72 72" xml:space="preserve">
<g id="Layer_2">
</g>
<g>
	<path fill="#231F20" d="M63,18.612l-9.61-9.611l-3.125,3.123l9.61,9.611L63,18.612z M52.834,57.917
		c0,2.811,2.275,5.086,5.082,5.084C60.725,63.003,63,60.726,63,57.917c0-2.807-5.082-11.832-5.082-11.832
		S52.834,55.112,52.834,57.917z M52.678,30.358c-0.051-1.822,1.037-2.939,1.763-3.664c0.964-0.963,3.687-0.607,4.189-1.109
		c0.271-0.273,0.404-0.639,0.404-1.029c0.001-0.434-0.172-0.891-0.487-1.281c-0.03-0.041-11.517-11.5-12.054-12.035
		c-1.492-1.492-3.448-2.238-5.403-2.238c-1.956,0-3.912,0.746-5.403,2.238c-1.953,1.953-2.619,4.699-2.016,7.201
		c-2.969-0.01-6.145,0.662-8.748,3.266l-13.95,13.945c-2.963,2.971-2.541,8.225,0.943,11.713l12.721,12.721
		c3.488,3.484,8.742,3.906,11.712,0.941l13.946-13.949C55.756,41.616,52.753,33.622,52.678,30.358z M44.193,18.528
		c-0.648,0.455-1.474,0.824-2.55,0.795c-0.856-0.02-2.043-0.242-3.419-0.459c-0.494-0.635-0.776-1.402-0.776-2.221
		c0-0.975,0.379-1.887,1.068-2.576c0.687-0.688,1.601-1.066,2.573-1.066s1.887,0.379,2.575,1.066
		C44.874,15.276,45.043,17.128,44.193,18.528z"/>
</g>
</svg>
