<?xml version="1.0" encoding="utf-8"?>
<!-- Generator: Adobe Illustrator 15.0.0, SVG Export Plug-In . SVG Version: 6.00 Build 0)  -->
<!DOCTYPE svg PUBLIC "-//W3C//DTD SVG 1.1//EN" "http://www.w3.org/Graphics/SVG/1.1/DTD/svg11.dtd">
<svg version="1.1" xmlns="http://www.w3.org/2000/svg" xmlns:xlink="http://www.w3.org/1999/xlink" x="0px" y="0px" width="72px"
	 height="72px" viewBox="0 0 72 72" enable-background="new 0 0 72 72" xml:space="preserve">
<g id="Symbols">
	<g>
		<g>
			<path d="M39.527,22.721c-0.488,2.678,0.291,5.549,2.344,7.623c1.658,1.674,3.83,2.51,6,2.51c0.52,0,1.037-0.049,1.546-0.145
				c0.004,1.752,0.666,3.504,1.99,4.844c1.326,1.34,3.064,2.008,4.803,2.008c1.736,0,3.475-0.668,4.801-2.01
				c2.65-2.678,2.65-7.021,0-9.699c-1.324-1.338-3.059-2.008-4.793-2.01c0.488-2.68-0.291-5.551-2.344-7.623
				c-1.654-1.674-3.826-2.512-5.998-2.51c-0.518-0.002-1.037,0.047-1.549,0.143c-0.002-1.752-0.666-3.504-1.99-4.842
				C43.011,9.67,41.273,9,39.535,9c-1.736,0-3.475,0.67-4.801,2.01c-2.65,2.678-2.652,7.021,0,9.699
				C36.06,22.047,37.792,22.717,39.527,22.721z M52.394,57.917c0,2.809,2.252,5.084,5.033,5.084c2.777,0,5.031-2.275,5.031-5.084
				c0-2.807-5.031-11.832-5.031-11.832S52.394,55.11,52.394,57.917z M48.011,35.836l-20.09,20.291l-1.398-1.414L46.31,34.725
				c-1.846-0.275-3.572-1.033-5.025-2.229L22.906,51.059l-1.398-1.414l18.367-18.551c-1.201-1.439-1.984-3.164-2.299-4.986
				L17.89,45.993l-1.4-1.414l20.16-20.365c-1.229-0.436-2.365-1.131-3.316-2.09c-0.662-0.668-1.66-2.203-1.66-2.203l-4.133-4.172
				c-0.77-0.777-1.783-1.166-2.797-1.166c-1.016,0-2.027,0.389-2.799,1.166L10.156,27.657c-1.541,1.555-1.541,4.1,0,5.652
				l4.131,4.174l-3.057,3.088c-2.062,2.082-2.262,5.289-0.449,7.123l13.912,14.055C25.527,62.588,26.642,63,27.808,63
				c1.377,0,2.818-0.576,3.938-1.705l20.49-20.697c-0.812-0.418-1.564-0.963-2.229-1.631C49.114,38.063,48.445,36.997,48.011,35.836
				z M12.955,30.487l11.777-11.902c0,0,0.006-0.002,0.012-0.002l-0.004-0.006l4.131,4.174L17.085,34.657L12.955,30.487z"/>
		</g>
	</g>
</g>
<g id="Layer_2">
</g>
</svg>
