<?xml version="1.0" encoding="utf-8"?>
<!-- Generator: Adobe Illustrator 15.0.0, SVG Export Plug-In . SVG Version: 6.00 Build 0)  -->
<!DOCTYPE svg PUBLIC "-//W3C//DTD SVG 1.1//EN" "http://www.w3.org/Graphics/SVG/1.1/DTD/svg11.dtd">
<svg version="1.1" xmlns="http://www.w3.org/2000/svg" xmlns:xlink="http://www.w3.org/1999/xlink" x="0px" y="0px" width="72px"
	 height="72px" viewBox="0 0 72 72" enable-background="new 0 0 72 72" xml:space="preserve">
<g id="Symbols">
	<g>
		<g>
			<path d="M52.935,57.917c0,2.809,2.252,5.084,5.033,5.084c2.779,0,5.031-2.275,5.031-5.084c0-2.807-5.031-11.832-5.031-11.832
				S52.935,55.111,52.935,57.917z M63,27.308L44.693,9l-4.191,4.193l18.307,18.309L63,27.308z M52.404,27.923l-4.152,4.152H31.599
				l12.479-12.479l-2.83-2.828L11.896,46.121c-3.861,3.863-3.861,10.123,0,13.984c1.932,1.932,4.461,2.896,6.992,2.896
				c2.529,0,5.061-0.965,6.992-2.896l29.352-29.354L52.404,27.923z M26.742,51.472c-1.127,2.08-3.73,2.855-5.816,1.727
				c-2.084-1.131-2.857-3.736-1.729-5.816c1.129-2.084,3.732-2.855,5.816-1.727C27.099,46.787,27.871,49.388,26.742,51.472z
				 M32.636,42.666c-0.652,1.203-2.16,1.65-3.363,0.998c-1.205-0.652-1.652-2.16-1-3.363s2.158-1.65,3.363-0.996
				C32.839,39.957,33.289,41.462,32.636,42.666z"/>
		</g>
	</g>
</g>
<g id="Layer_2">
</g>
</svg>
