<?xml version="1.0" encoding="UTF-8" standalone="no"?>
<!-- Created with Inkscape (http://www.inkscape.org/) -->

<svg
   xmlns:dc="http://purl.org/dc/elements/1.1/"
   xmlns:cc="http://creativecommons.org/ns#"
   xmlns:rdf="http://www.w3.org/1999/02/22-rdf-syntax-ns#"
   xmlns:svg="http://www.w3.org/2000/svg"
   xmlns="http://www.w3.org/2000/svg"
   xmlns:sodipodi="http://sodipodi.sourceforge.net/DTD/sodipodi-0.dtd"
   xmlns:inkscape="http://www.inkscape.org/namespaces/inkscape"
   width="200"
   height="200.01282"
   id="svg2"
   version="1.1"
   inkscape:version="0.48.3.1 r9886"
   sodipodi:docname="logo.svg">
  <defs
     id="defs4" />
  <sodipodi:namedview
     id="base"
     pagecolor="#ffffff"
     bordercolor="#666666"
     borderopacity="1.0"
     inkscape:pageopacity="0.0"
     inkscape:pageshadow="2"
     inkscape:zoom="3.959798"
     inkscape:cx="61.49925"
     inkscape:cy="109.07099"
     inkscape:document-units="px"
     inkscape:current-layer="g4186"
     showgrid="true"
     inkscape:snap-global="true"
     inkscape:window-width="1920"
     inkscape:window-height="1023"
     inkscape:window-x="0"
     inkscape:window-y="25"
     inkscape:window-maximized="1"
     fit-margin-top="10"
     fit-margin-left="10"
     fit-margin-right="10"
     fit-margin-bottom="10">
    <inkscape:grid
       type="xygrid"
       id="grid3775"
       empspacing="5"
       visible="true"
       enabled="true"
       snapvisiblegridlinesonly="true"
       originx="-115px"
       originy="-629.98718px" />
  </sodipodi:namedview>
  <metadata
     id="metadata7">
    <rdf:RDF>
      <cc:Work
         rdf:about="">
        <dc:format>image/svg+xml</dc:format>
        <dc:type
           rdf:resource="http://purl.org/dc/dcmitype/StillImage" />
        <dc:title />
      </cc:Work>
    </rdf:RDF>
  </metadata>
  <g
     inkscape:label="Calque 1"
     inkscape:groupmode="layer"
     id="layer1"
     transform="translate(-115,-222.36218)">
    <g
       id="g4186">
      <path
         d="m 190,319.86218 c 0,6.90356 -5.59644,12.5 -12.5,12.5 -6.90356,0 -12.5,-5.59644 -12.5,-12.5 0,-6.90356 5.59644,-12.5 12.5,-12.5 6.90356,0 12.5,5.59644 12.5,12.5 z"
         sodipodi:ry="12.5"
         sodipodi:rx="12.5"
         sodipodi:cy="319.86218"
         sodipodi:cx="177.5"
         id="path3813-76-0"
         style="fill:#e3e3e3;fill-opacity:1;fill-rule:nonzero;stroke:none"
         sodipodi:type="arc"
         transform="matrix(1.5578947,0,0,1.5578947,-97.052626,-155.94942)" />
      <path
         d="m 305,322.36218 c 0,49.70563 -40.29437,90 -90,90 -49.70563,0 -90,-40.29437 -90,-90 0,-49.70562 40.29437,-90 90,-90 49.70563,0 90,40.29438 90,90 z"
         sodipodi:ry="90"
         sodipodi:rx="90"
         sodipodi:cy="322.36218"
         sodipodi:cx="215"
         id="path3777-8-7"
         style="fill:#f2f2f2;fill-opacity:1;fill-rule:nonzero;stroke:none;stroke-opacity:1;stroke-width:0.10000000000000001;stroke-miterlimit:4;stroke-dasharray:none"
         sodipodi:type="arc" />
      <path
         id="path3777-8-3"
         d="m 288.63222,271.57789 c -6.88514,0.57569 -12.33387,6.30651 -12.45941,13.36337 -0.13392,7.52732 5.85963,13.73799 13.38694,13.8719 4.34474,0.0773 8.2494,-1.89573 10.80149,-5.01787 -3.06971,-7.75245 -6.84995,-15.19922 -11.19358,-22.20788 -0.17565,0.008 -0.36154,-0.024 -0.53544,-0.01 z"
         style="fill:#e3e3e3;fill-opacity:1;fill-rule:nonzero;stroke:none"
         inkscape:connector-curvature="0" />
      <path
         id="path3777-8"
         d="m 290.09375,273.89343 c -4.41224,0.44809 -7.84375,4.18829 -7.84375,8.71875 0,4.83249 3.91751,8.75 8.75,8.75 2.78929,0 5.27274,-1.31085 6.875,-3.34375 -2.05863,-4.9404 -4.56978,-9.6765 -7.4375,-14.125 -0.11264,0.007 -0.23231,-0.0113 -0.34375,0 z"
         style="fill:#cccccc;fill-opacity:1;fill-rule:nonzero;stroke:none"
         inkscape:connector-curvature="0" />
      <path
         transform="matrix(1.5578947,0,0,1.5578947,-102.6842,-159.15994)"
         d="m 220,289.86218 c 0,12.42641 -10.07359,22.5 -22.5,22.5 -12.42641,0 -22.5,-10.07359 -22.5,-22.5 0,-12.4264 10.07359,-22.5 22.5,-22.5 12.42641,0 22.5,10.0736 22.5,22.5 z"
         sodipodi:ry="22.5"
         sodipodi:rx="22.5"
         sodipodi:cy="289.86218"
         sodipodi:cx="197.5"
         id="path3811-0"
         style="fill:#e3e3e3;fill-opacity:1;fill-rule:nonzero;stroke:none"
         sodipodi:type="arc" />
      <path
         transform="matrix(1.5578947,0,0,1.5578947,-60.999993,-155.94942)"
         d="m 190,319.86218 a 12.5,12.5 0 1 1 -25,0 12.5,12.5 0 1 1 25,0 z"
         sodipodi:ry="12.5"
         sodipodi:rx="12.5"
         sodipodi:cy="319.86218"
         sodipodi:cx="177.5"
         id="path3813-8"
         style="fill:#e3e3e3;fill-opacity:1;fill-rule:nonzero;stroke:none"
         sodipodi:type="arc" />
      <path
         transform="matrix(0.97894749,0,0,0.97894749,28.473664,79.233902)"
         d="m 190,319.86218 c 0,6.90356 -5.59644,12.5 -12.5,12.5 -6.90356,0 -12.5,-5.59644 -12.5,-12.5 0,-6.90356 5.59644,-12.5 12.5,-12.5 6.90356,0 12.5,5.59644 12.5,12.5 z"
         sodipodi:ry="12.5"
         sodipodi:rx="12.5"
         sodipodi:cy="319.86218"
         sodipodi:cx="177.5"
         id="path3813-8-3-4"
         style="fill:#e3e3e3;fill-opacity:1;fill-rule:nonzero;stroke:none"
         sodipodi:type="arc" />
      <path
         id="path3777"
         d="M 169.40625,244.75 C 142.83117,260.39372 125,289.30663 125,322.375 c 0,49.70563 40.29437,90 90,90 23.81475,0 45.46508,-9.27228 61.5625,-24.375 -13.36336,7.85919 -28.93829,12.375 -45.5625,12.375 -49.70563,0 -90,-40.29437 -90,-90 0,-25.87505 10.92421,-49.20724 28.40625,-65.625 z"
         style="fill:#c0c0c0;fill-opacity:1;fill-rule:nonzero;stroke:none"
         inkscape:connector-curvature="0" />
      <path
         d="m 190,319.86218 c 0,6.90356 -5.59644,12.5 -12.5,12.5 -6.90356,0 -12.5,-5.59644 -12.5,-12.5 0,-6.90356 5.59644,-12.5 12.5,-12.5 6.90356,0 12.5,5.59644 12.5,12.5 z"
         sodipodi:ry="12.5"
         sodipodi:rx="12.5"
         sodipodi:cy="319.86218"
         sodipodi:cx="177.5"
         id="path3813-9-6"
         style="fill:#e3e3e3;fill-opacity:1;fill-rule:nonzero;stroke:none"
         sodipodi:type="arc"
         transform="matrix(1.5578947,0,0,1.5578947,-114.94736,-191.4231)" />
      <path
         d="m 185,302.36218 a 10,10 0 1 1 -20,0 10,10 0 1 1 20,0 z"
         sodipodi:ry="10"
         sodipodi:rx="10"
         sodipodi:cy="302.36218"
         sodipodi:cx="175"
         id="path3805"
         style="fill:#c0c0c0;fill-opacity:1;fill-rule:nonzero;stroke:none"
         sodipodi:type="arc"
         transform="translate(25,-15.000005)" />
      <path
         transform="translate(5,-2.5)"
         d="m 220,289.86218 c 0,12.42641 -10.07359,22.5 -22.5,22.5 -12.42641,0 -22.5,-10.07359 -22.5,-22.5 0,-12.4264 10.07359,-22.5 22.5,-22.5 12.42641,0 22.5,10.0736 22.5,22.5 z"
         sodipodi:ry="22.5"
         sodipodi:rx="22.5"
         sodipodi:cy="289.86218"
         sodipodi:cx="197.5"
         id="path3811"
         style="fill:#cccccc;fill-opacity:1;fill-rule:nonzero;stroke:none"
         sodipodi:type="arc" />
      <path
         d="m 190,319.86218 c 0,6.90356 -5.59644,12.5 -12.5,12.5 -6.90356,0 -12.5,-5.59644 -12.5,-12.5 0,-6.90356 5.59644,-12.5 12.5,-12.5 6.90356,0 12.5,5.59644 12.5,12.5 z"
         sodipodi:ry="12.5"
         sodipodi:rx="12.5"
         sodipodi:cy="319.86218"
         sodipodi:cx="177.5"
         id="path3813-504-1"
         style="fill:#e3e3e3;fill-opacity:1;fill-rule:nonzero;stroke:none"
         sodipodi:type="arc"
         transform="matrix(1.5578947,0,0,1.5578947,-21.526309,-205.4231)" />
      <path
         transform="matrix(0.1989036,-0.22458263,0.59888669,0.53040933,-49.380509,254.19782)"
         d="m 190,319.86218 a 12.5,12.5 0 1 1 -25,0 12.5,12.5 0 1 1 25,0 z"
         sodipodi:ry="12.5"
         sodipodi:rx="12.5"
         sodipodi:cy="319.86218"
         sodipodi:cx="177.5"
         id="path3813"
         style="fill:#c0c0c0;fill-opacity:1;fill-rule:nonzero;stroke:none"
         sodipodi:type="arc" />
      <path
         d="m 190,319.86218 c 0,6.90356 -5.59644,12.5 -12.5,12.5 -6.90356,0 -12.5,-5.59644 -12.5,-12.5 0,-6.90356 5.59644,-12.5 12.5,-12.5 6.90356,0 12.5,5.59644 12.5,12.5 z"
         sodipodi:ry="12.5"
         sodipodi:rx="12.5"
         sodipodi:cy="319.86218"
         sodipodi:cx="177.5"
         id="path3813-2-2"
         style="fill:#e3e3e3;fill-opacity:1;fill-rule:nonzero;stroke:none"
         sodipodi:type="arc"
         transform="matrix(1.0905263,0,0,1.0905263,57.800003,-36.45594)" />
      <path
         d="m 190,319.86218 c 0,6.90356 -5.59644,12.5 -12.5,12.5 -6.90356,0 -12.5,-5.59644 -12.5,-12.5 0,-6.90356 5.59644,-12.5 12.5,-12.5 6.90356,0 12.5,5.59644 12.5,12.5 z"
         sodipodi:ry="12.5"
         sodipodi:rx="12.5"
         sodipodi:cy="319.86218"
         sodipodi:cx="177.5"
         id="path3813-9"
         style="fill:#cccccc;fill-opacity:1;fill-rule:nonzero;stroke:none"
         sodipodi:type="arc"
         transform="translate(40,22.5)" />
      <path
         d="m 190,319.86218 c 0,6.90356 -5.59644,12.5 -12.5,12.5 -6.90356,0 -12.5,-5.59644 -12.5,-12.5 0,-6.90356 5.59644,-12.5 12.5,-12.5 6.90356,0 12.5,5.59644 12.5,12.5 z"
         sodipodi:ry="12.5"
         sodipodi:rx="12.5"
         sodipodi:cy="319.86218"
         sodipodi:cx="177.5"
         id="path3813-504"
         style="fill:#cccccc;fill-opacity:1;fill-rule:nonzero;stroke:none"
         sodipodi:type="arc"
         transform="translate(80,-27.5)" />
      <path
         d="m 190,319.86218 c 0,6.90356 -5.59644,12.5 -12.5,12.5 -6.90356,0 -12.5,-5.59644 -12.5,-12.5 0,-6.90356 5.59644,-12.5 12.5,-12.5 6.90356,0 12.5,5.59644 12.5,12.5 z"
         sodipodi:ry="12.5"
         sodipodi:rx="12.5"
         sodipodi:cy="319.86218"
         sodipodi:cx="177.5"
         id="path3813-2"
         style="fill:#cccccc;fill-opacity:1;fill-rule:nonzero;stroke:none"
         sodipodi:type="arc"
         transform="matrix(0.70000001,0,0,0.70000001,129.5,88.458652)" />
      <path
         d="m 190,319.86218 a 12.5,12.5 0 1 1 -25,0 12.5,12.5 0 1 1 25,0 z"
         sodipodi:ry="12.5"
         sodipodi:rx="12.5"
         sodipodi:cy="319.86218"
         sodipodi:cx="177.5"
         id="path3813-76"
         style="fill:#cccccc;fill-opacity:1;fill-rule:nonzero;stroke:none"
         sodipodi:type="arc"
         transform="translate(-12.5,-15.000005)" />
      <path
         transform="matrix(0.97894749,0,0,0.97894749,76.236821,36.997058)"
         d="m 190,319.86218 c 0,6.90356 -5.59644,12.5 -12.5,12.5 -6.90356,0 -12.5,-5.59644 -12.5,-12.5 0,-6.90356 5.59644,-12.5 12.5,-12.5 6.90356,0 12.5,5.59644 12.5,12.5 z"
         sodipodi:ry="12.5"
         sodipodi:rx="12.5"
         sodipodi:cy="319.86218"
         sodipodi:cx="177.5"
         id="path3813-8-3"
         style="fill:#e3e3e3;fill-opacity:1;fill-rule:nonzero;stroke:none"
         sodipodi:type="arc" />
      <path
         d="m 190,319.86218 a 12.5,12.5 0 1 1 -25,0 12.5,12.5 0 1 1 25,0 z"
         sodipodi:ry="12.5"
         sodipodi:rx="12.5"
         sodipodi:cy="319.86218"
         sodipodi:cx="177.5"
         id="path3813-2-3"
         style="fill:#cccccc;fill-opacity:1;fill-rule:nonzero;stroke:none"
         sodipodi:type="arc"
         transform="matrix(0.55000007,0,0,0.55000007,154.37499,175.56295)" />
      <path
         d="m 190,319.86218 a 12.5,12.5 0 1 1 -25,0 12.5,12.5 0 1 1 25,0 z"
         sodipodi:ry="12.5"
         sodipodi:rx="12.5"
         sodipodi:cy="319.86218"
         sodipodi:cx="177.5"
         id="path3813-2-9"
         style="fill:#c0c0c0;fill-opacity:1;fill-rule:nonzero;stroke:none"
         sodipodi:type="arc"
         transform="matrix(0.30000014,0,0,0.30000014,199.74998,256.65348)" />
      <path
         d="m 190,319.86218 a 12.5,12.5 0 1 1 -25,0 12.5,12.5 0 1 1 25,0 z"
         sodipodi:ry="12.5"
         sodipodi:rx="12.5"
         sodipodi:cy="319.86218"
         sodipodi:cx="177.5"
         id="path3813-2-3-7"
         style="fill:#c0c0c0;fill-opacity:1;fill-rule:nonzero;stroke:none"
         sodipodi:type="arc"
         transform="matrix(0.55000007,0,0,0.55000007,100.49999,221.43795)" />
      <path
         transform="matrix(0.4444443,0,0,0.47222213,117.22225,144.85784)"
         d="m 220,289.86218 a 22.5,22.5 0 1 1 -45,0 22.5,22.5 0 1 1 45,0 z"
         sodipodi:ry="22.5"
         sodipodi:rx="22.5"
         sodipodi:cy="289.86218"
         sodipodi:cx="197.5"
         id="path3811-8"
         style="fill:#b3b3b3;fill-opacity:1;fill-rule:nonzero;stroke:none"
         sodipodi:type="arc" />
      <path
         transform="matrix(0.28888889,0,0,0.28888903,164.44444,258.62417)"
         d="m 220,289.86218 a 22.5,22.5 0 1 1 -45,0 22.5,22.5 0 1 1 45,0 z"
         sodipodi:ry="22.5"
         sodipodi:rx="22.5"
         sodipodi:cy="289.86218"
         sodipodi:cx="197.5"
         id="path3811-2"
         style="fill:#b3b3b3;fill-opacity:1;fill-rule:nonzero;stroke:none"
         sodipodi:type="arc" />
      <path
         id="path3777-8-6"
         d="m 291.85878,276.53731 c -1.1957,0.34644 -1.64425,2.47372 -1.00129,4.95516 0.68583,2.64686 2.35987,4.70283 3.7391,4.59214 0.79607,-0.0639 1.31883,-0.83878 1.48761,-1.98894 -1.28868,-2.65882 -2.67752,-5.19538 -4.12732,-7.56623 -0.0312,0.006 -0.0679,-0.001 -0.098,0.008 z"
         style="fill:#b3b3b3;fill-opacity:1;fill-rule:nonzero;stroke:none"
         inkscape:connector-curvature="0" />
      <path
         transform="matrix(0.28888889,0,0,0.28888903,109.44444,223.62417)"
         d="m 220,289.86218 a 22.5,22.5 0 1 1 -45,0 22.5,22.5 0 1 1 45,0 z"
         sodipodi:ry="22.5"
         sodipodi:rx="22.5"
         sodipodi:cy="289.86218"
         sodipodi:cx="197.5"
         id="path3811-2-7"
         style="fill:#b3b3b3;fill-opacity:1;fill-rule:nonzero;stroke:none"
         sodipodi:type="arc" />
    </g>
  </g>
</svg>
