<?xml version="1.0" encoding="UTF-8" standalone="no"?>
<!-- Created with Inkscape (http://www.inkscape.org/) -->

<svg
   xmlns:dc="http://purl.org/dc/elements/1.1/"
   xmlns:cc="http://creativecommons.org/ns#"
   xmlns:rdf="http://www.w3.org/1999/02/22-rdf-syntax-ns#"
   xmlns:svg="http://www.w3.org/2000/svg"
   xmlns="http://www.w3.org/2000/svg"
   xmlns:sodipodi="http://sodipodi.sourceforge.net/DTD/sodipodi-0.dtd"
   xmlns:inkscape="http://www.inkscape.org/namespaces/inkscape"
   width="200"
   height="200.01282"
   id="svg2"
   version="1.1"
   inkscape:version="0.48.3.1 r9886"
   sodipodi:docname="logo.svg">
  <defs
     id="defs4" />
  <sodipodi:namedview
     id="base"
     pagecolor="#ffffff"
     bordercolor="#666666"
     borderopacity="1.0"
     inkscape:pageopacity="0.0"
     inkscape:pageshadow="2"
     inkscape:zoom="1.979899"
     inkscape:cx="81.99789"
     inkscape:cy="64.678915"
     inkscape:document-units="px"
     inkscape:current-layer="layer1"
     showgrid="true"
     inkscape:snap-global="true"
     inkscape:window-width="1920"
     inkscape:window-height="1023"
     inkscape:window-x="0"
     inkscape:window-y="25"
     inkscape:window-maximized="1"
     fit-margin-top="10"
     fit-margin-left="10"
     fit-margin-right="10"
     fit-margin-bottom="10">
    <inkscape:grid
       type="xygrid"
       id="grid3775"
       empspacing="5"
       visible="true"
       enabled="true"
       snapvisiblegridlinesonly="true"
       originx="-115px"
       originy="-629.98718px" />
  </sodipodi:namedview>
  <metadata
     id="metadata7">
    <rdf:RDF>
      <cc:Work
         rdf:about="">
        <dc:format>image/svg+xml</dc:format>
        <dc:type
           rdf:resource="http://purl.org/dc/dcmitype/StillImage" />
        <dc:title />
      </cc:Work>
    </rdf:RDF>
  </metadata>
  <g
     inkscape:label="Calque 1"
     inkscape:groupmode="layer"
     id="layer1"
     transform="translate(-115,-222.36218)">
    <g
       id="g4186">
      <path
         d="m 190,319.86218 c 0,6.90356 -5.59644,12.5 -12.5,12.5 -6.90356,0 -12.5,-5.59644 -12.5,-12.5 0,-6.90356 5.59644,-12.5 12.5,-12.5 6.90356,0 12.5,5.59644 12.5,12.5 z"
         sodipodi:ry="12.5"
         sodipodi:rx="12.5"
         sodipodi:cy="319.86218"
         sodipodi:cx="177.5"
         id="path3813-76-0"
         style="fill:#e3e3e3;fill-opacity:1;fill-rule:nonzero;stroke:none"
         sodipodi:type="arc"
         transform="matrix(1.5578947,0,0,1.5578947,-97.052626,-155.94942)" />
      <path
         d="m 305,322.36218 c 0,49.70563 -40.29437,90 -90,90 -49.70563,0 -90,-40.29437 -90,-90 0,-49.70562 40.29437,-90 90,-90 49.70563,0 90,40.29438 90,90 z"
         sodipodi:ry="90"
         sodipodi:rx="90"
         sodipodi:cy="322.36218"
         sodipodi:cx="215"
         id="path3777-8-7"
         style="fill:#f2f2f2;fill-opacity:1;fill-rule:nonzero;stroke:none"
         sodipodi:type="arc" />
      <path
         id="path3777-8-3"
         d="m 286.58816,270.14771 c -6.87381,0.69807 -12.21974,6.52491 -12.21974,13.58289 0,7.52851 6.10307,13.63158 13.63158,13.63158 4.34542,0 8.21437,-2.04217 10.71052,-5.20921 -3.20712,-7.69662 -7.11923,-15.07497 -11.58684,-22.00526 -0.17548,0.0109 -0.36191,-0.0176 -0.53552,0 z"
         style="fill:#e3e3e3;fill-opacity:1;fill-rule:nonzero;stroke:none"
         inkscape:connector-curvature="0" />
      <path
         id="path3777-8"
         d="m 290.34375,273.65625 c -4.41224,0.44809 -7.84375,4.18829 -7.84375,8.71875 0,4.83249 3.91751,8.75 8.75,8.75 2.78929,0 5.27274,-1.31085 6.875,-3.34375 -2.05863,-4.9404 -4.56978,-9.6765 -7.4375,-14.125 -0.11264,0.007 -0.23231,-0.0113 -0.34375,0 z"
         style="fill:#a3a3a3;fill-opacity:1;fill-rule:nonzero;stroke:none"
         inkscape:connector-curvature="0" />
      <path
         transform="matrix(1.5578947,0,0,1.5578947,-102.6842,-159.15994)"
         d="m 220,289.86218 c 0,12.42641 -10.07359,22.5 -22.5,22.5 -12.42641,0 -22.5,-10.07359 -22.5,-22.5 0,-12.4264 10.07359,-22.5 22.5,-22.5 12.42641,0 22.5,10.0736 22.5,22.5 z"
         sodipodi:ry="22.5"
         sodipodi:rx="22.5"
         sodipodi:cy="289.86218"
         sodipodi:cx="197.5"
         id="path3811-0"
         style="fill:#e3e3e3;fill-opacity:1;fill-rule:nonzero;stroke:none"
         sodipodi:type="arc" />
      <path
         transform="matrix(1.5578947,0,0,1.5578947,-61.526309,-156.47573)"
         d="m 190,319.86218 c 0,6.90356 -5.59644,12.5 -12.5,12.5 -6.90356,0 -12.5,-5.59644 -12.5,-12.5 0,-6.90356 5.59644,-12.5 12.5,-12.5 6.90356,0 12.5,5.59644 12.5,12.5 z"
         sodipodi:ry="12.5"
         sodipodi:rx="12.5"
         sodipodi:cy="319.86218"
         sodipodi:cx="177.5"
         id="path3813-8"
         style="fill:#e3e3e3;fill-opacity:1;fill-rule:nonzero;stroke:none"
         sodipodi:type="arc" />
      <path
         transform="matrix(0.97894749,0,0,0.97894749,28.473664,79.233902)"
         d="m 190,319.86218 c 0,6.90356 -5.59644,12.5 -12.5,12.5 -6.90356,0 -12.5,-5.59644 -12.5,-12.5 0,-6.90356 5.59644,-12.5 12.5,-12.5 6.90356,0 12.5,5.59644 12.5,12.5 z"
         sodipodi:ry="12.5"
         sodipodi:rx="12.5"
         sodipodi:cy="319.86218"
         sodipodi:cx="177.5"
         id="path3813-8-3-4"
         style="fill:#e3e3e3;fill-opacity:1;fill-rule:nonzero;stroke:none"
         sodipodi:type="arc" />
      <path
         id="path3777"
         d="M 169.40625,244.75 C 142.83117,260.39372 125,289.30663 125,322.375 c 0,49.70563 40.29437,90 90,90 23.81475,0 45.46508,-9.27228 61.5625,-24.375 -13.36336,7.85919 -28.93829,12.375 -45.5625,12.375 -49.70563,0 -90,-40.29437 -90,-90 0,-25.87505 10.92421,-49.20724 28.40625,-65.625 z"
         style="fill:#c0c0c0;fill-opacity:1;fill-rule:nonzero;stroke:none"
         inkscape:connector-curvature="0" />
      <path
         d="m 190,319.86218 c 0,6.90356 -5.59644,12.5 -12.5,12.5 -6.90356,0 -12.5,-5.59644 -12.5,-12.5 0,-6.90356 5.59644,-12.5 12.5,-12.5 6.90356,0 12.5,5.59644 12.5,12.5 z"
         sodipodi:ry="12.5"
         sodipodi:rx="12.5"
         sodipodi:cy="319.86218"
         sodipodi:cx="177.5"
         id="path3813-9-6"
         style="fill:#e3e3e3;fill-opacity:1;fill-rule:nonzero;stroke:none"
         sodipodi:type="arc"
         transform="matrix(1.5578947,0,0,1.5578947,-114.94736,-191.4231)" />
      <path
         d="m 185,302.36218 c 0,5.52285 -4.47715,10 -10,10 -5.52285,0 -10,-4.47715 -10,-10 0,-5.52284 4.47715,-10 10,-10 5.52285,0 10,4.47716 10,10 z"
         sodipodi:ry="10"
         sodipodi:rx="10"
         sodipodi:cy="302.36218"
         sodipodi:cx="175"
         id="path3805"
         style="fill:#c0c0c0;fill-opacity:1;fill-rule:nonzero;stroke:none"
         sodipodi:type="arc" />
      <path
         transform="translate(5,-2.5)"
         d="m 220,289.86218 c 0,12.42641 -10.07359,22.5 -22.5,22.5 -12.42641,0 -22.5,-10.07359 -22.5,-22.5 0,-12.4264 10.07359,-22.5 22.5,-22.5 12.42641,0 22.5,10.0736 22.5,22.5 z"
         sodipodi:ry="22.5"
         sodipodi:rx="22.5"
         sodipodi:cy="289.86218"
         sodipodi:cx="197.5"
         id="path3811"
         style="fill:#c0c0c0;fill-opacity:1;fill-rule:nonzero;stroke:none"
         sodipodi:type="arc" />
      <path
         d="m 190,319.86218 c 0,6.90356 -5.59644,12.5 -12.5,12.5 -6.90356,0 -12.5,-5.59644 -12.5,-12.5 0,-6.90356 5.59644,-12.5 12.5,-12.5 6.90356,0 12.5,5.59644 12.5,12.5 z"
         sodipodi:ry="12.5"
         sodipodi:rx="12.5"
         sodipodi:cy="319.86218"
         sodipodi:cx="177.5"
         id="path3813-504-1"
         style="fill:#e3e3e3;fill-opacity:1;fill-rule:nonzero;stroke:none"
         sodipodi:type="arc"
         transform="matrix(1.5578947,0,0,1.5578947,-21.526309,-205.4231)" />
      <path
         transform="translate(12.5,65)"
         d="m 190,319.86218 c 0,6.90356 -5.59644,12.5 -12.5,12.5 -6.90356,0 -12.5,-5.59644 -12.5,-12.5 0,-6.90356 5.59644,-12.5 12.5,-12.5 6.90356,0 12.5,5.59644 12.5,12.5 z"
         sodipodi:ry="12.5"
         sodipodi:rx="12.5"
         sodipodi:cy="319.86218"
         sodipodi:cx="177.5"
         id="path3813"
         style="fill:#c0c0c0;fill-opacity:1;fill-rule:nonzero;stroke:none"
         sodipodi:type="arc" />
      <path
         d="m 190,319.86218 c 0,6.90356 -5.59644,12.5 -12.5,12.5 -6.90356,0 -12.5,-5.59644 -12.5,-12.5 0,-6.90356 5.59644,-12.5 12.5,-12.5 6.90356,0 12.5,5.59644 12.5,12.5 z"
         sodipodi:ry="12.5"
         sodipodi:rx="12.5"
         sodipodi:cy="319.86218"
         sodipodi:cx="177.5"
         id="path3813-2-2"
         style="fill:#e3e3e3;fill-opacity:1;fill-rule:nonzero;stroke:none"
         sodipodi:type="arc"
         transform="matrix(1.0905263,0,0,1.0905263,57.800003,-36.45594)" />
      <path
         d="m 190,319.86218 c 0,6.90356 -5.59644,12.5 -12.5,12.5 -6.90356,0 -12.5,-5.59644 -12.5,-12.5 0,-6.90356 5.59644,-12.5 12.5,-12.5 6.90356,0 12.5,5.59644 12.5,12.5 z"
         sodipodi:ry="12.5"
         sodipodi:rx="12.5"
         sodipodi:cy="319.86218"
         sodipodi:cx="177.5"
         id="path3813-9"
         style="fill:#c0c0c0;fill-opacity:1;fill-rule:nonzero;stroke:none"
         sodipodi:type="arc"
         transform="translate(40,22.5)" />
      <path
         d="m 190,319.86218 c 0,6.90356 -5.59644,12.5 -12.5,12.5 -6.90356,0 -12.5,-5.59644 -12.5,-12.5 0,-6.90356 5.59644,-12.5 12.5,-12.5 6.90356,0 12.5,5.59644 12.5,12.5 z"
         sodipodi:ry="12.5"
         sodipodi:rx="12.5"
         sodipodi:cy="319.86218"
         sodipodi:cx="177.5"
         id="path3813-504"
         style="fill:#c0c0c0;fill-opacity:1;fill-rule:nonzero;stroke:none"
         sodipodi:type="arc"
         transform="translate(80,-27.5)" />
      <path
         d="m 190,319.86218 c 0,6.90356 -5.59644,12.5 -12.5,12.5 -6.90356,0 -12.5,-5.59644 -12.5,-12.5 0,-6.90356 5.59644,-12.5 12.5,-12.5 6.90356,0 12.5,5.59644 12.5,12.5 z"
         sodipodi:ry="12.5"
         sodipodi:rx="12.5"
         sodipodi:cy="319.86218"
         sodipodi:cx="177.5"
         id="path3813-2"
         style="fill:#c0c0c0;fill-opacity:1;fill-rule:nonzero;stroke:none"
         sodipodi:type="arc"
         transform="matrix(0.70000001,0,0,0.70000001,129.5,88.458652)" />
      <path
         d="m 190,319.86218 c 0,6.90356 -5.59644,12.5 -12.5,12.5 -6.90356,0 -12.5,-5.59644 -12.5,-12.5 0,-6.90356 5.59644,-12.5 12.5,-12.5 6.90356,0 12.5,5.59644 12.5,12.5 z"
         sodipodi:ry="12.5"
         sodipodi:rx="12.5"
         sodipodi:cy="319.86218"
         sodipodi:cx="177.5"
         id="path3813-76"
         style="fill:#c0c0c0;fill-opacity:1;fill-rule:nonzero;stroke:none"
         sodipodi:type="arc"
         transform="translate(-15,2.5)" />
      <path
         transform="matrix(0.97894749,0,0,0.97894749,76.236821,36.997058)"
         d="m 190,319.86218 c 0,6.90356 -5.59644,12.5 -12.5,12.5 -6.90356,0 -12.5,-5.59644 -12.5,-12.5 0,-6.90356 5.59644,-12.5 12.5,-12.5 6.90356,0 12.5,5.59644 12.5,12.5 z"
         sodipodi:ry="12.5"
         sodipodi:rx="12.5"
         sodipodi:cy="319.86218"
         sodipodi:cx="177.5"
         id="path3813-8-3"
         style="fill:#e3e3e3;fill-opacity:1;fill-rule:nonzero;stroke:none"
         sodipodi:type="arc" />
      <path
         d="m 190,319.86218 c 0,6.90356 -5.59644,12.5 -12.5,12.5 -6.90356,0 -12.5,-5.59644 -12.5,-12.5 0,-6.90356 5.59644,-12.5 12.5,-12.5 6.90356,0 12.5,5.59644 12.5,12.5 z"
         sodipodi:ry="12.5"
         sodipodi:rx="12.5"
         sodipodi:cy="319.86218"
         sodipodi:cx="177.5"
         id="path3813-2-9"
         style="fill:#c0c0c0;fill-opacity:1;fill-rule:nonzero;stroke:none"
         sodipodi:type="arc"
         transform="matrix(0.30000014,0,0,0.30000014,195.49998,251.40348)" />
      <path
         d="m 190,319.86218 c 0,6.90356 -5.59644,12.5 -12.5,12.5 -6.90356,0 -12.5,-5.59644 -12.5,-12.5 0,-6.90356 5.59644,-12.5 12.5,-12.5 6.90356,0 12.5,5.59644 12.5,12.5 z"
         sodipodi:ry="12.5"
         sodipodi:rx="12.5"
         sodipodi:cy="319.86218"
         sodipodi:cx="177.5"
         id="path3813-2-3"
         style="fill:#c0c0c0;fill-opacity:1;fill-rule:nonzero;stroke:none"
         sodipodi:type="arc"
         transform="matrix(0.55000007,0,0,0.55000007,155.49999,176.43796)" />
      <path
         d="m 190,319.86218 c 0,6.90356 -5.59644,12.5 -12.5,12.5 -6.90356,0 -12.5,-5.59644 -12.5,-12.5 0,-6.90356 5.59644,-12.5 12.5,-12.5 6.90356,0 12.5,5.59644 12.5,12.5 z"
         sodipodi:ry="12.5"
         sodipodi:rx="12.5"
         sodipodi:cy="319.86218"
         sodipodi:cx="177.5"
         id="path3813-2-3-7"
         style="fill:#c0c0c0;fill-opacity:1;fill-rule:nonzero;stroke:none"
         sodipodi:type="arc"
         transform="matrix(0.55000007,0,0,0.55000007,115.49999,211.43796)" />
    </g>
  </g>
</svg>
